<?xml version="1.0" standalone="no"?>
<!DOCTYPE svg PUBLIC "-//W3C//DTD SVG 20010904//EN"
 "http://www.w3.org/TR/2001/REC-SVG-20010904/DTD/svg10.dtd">
<svg version="1.0" xmlns="http://www.w3.org/2000/svg"
 width="225.000000pt" height="225.000000pt" viewBox="0 0 225.000000 225.000000"
 preserveAspectRatio="xMidYMid meet">
<metadata>
Created by potrace 1.14, written by Peter Selinger 2001-2017
</metadata>
<g transform="translate(0.000000,225.000000) scale(0.100000,-0.100000)"
fill="#000000" stroke="none">
<path d="M1015 2023 c-68 -9 -225 -58 -290 -91 -233 -119 -394 -314 -467 -566
-51 -177 -48 -332 8 -511 91 -289 304 -501 600 -597 95 -31 106 -32 264 -32
l165 -1 109 38 c291 100 483 292 583 583 l38 109 -1 165 c0 158 -1 169 -32
264 -77 239 -239 433 -447 539 -165 84 -365 122 -530 100z m3 -563 c55 -24 72
-43 72 -82 0 -48 -15 -54 -58 -25 -46 33 -92 47 -149 47 -55 0 -91 -14 -131
-53 -84 -81 -96 -323 -21 -429 54 -75 193 -90 290 -29 28 17 55 29 60 25 15
-9 10 -71 -7 -89 -9 -9 -39 -28 -68 -43 -44 -23 -63 -27 -136 -27 -73 0 -92 4
-137 27 -59 32 -115 95 -140 159 -26 70 -24 277 5 349 67 170 250 244 420 170z
m227 -12 c7 -18 47 -132 88 -253 42 -121 83 -242 93 -269 l17 -49 97 289 c53
160 100 295 104 302 10 16 85 16 92 -1 4 -11 -63 -208 -205 -607 -36 -101 -35
-100 -91 -100 -40 0 -52 4 -64 23 -13 20 -44 105 -202 556 -24 68 -41 128 -38
133 3 4 25 8 50 8 41 0 46 -3 59 -32z"/>
</g>
</svg>
